<?xml version="1.0" encoding="UTF-8"?>
<svg width="100" height="200" viewBox="0 0 100 200" xmlns="http://www.w3.org/2000/svg">
    <path d="M30,80 C10,50 0,30 0,20 C0,10 10,0 25,0 C40,0 50,10 50,20 C50,10 60,0 75,0 C90,0 100,10 100,20 C100,30 90,50 70,80 L70,180 C70,190 60,200 50,200 C40,200 30,190 30,180 Z" fill="#ffb6c1"/>
    <path d="M35,85 C20,60 10,40 10,25 C10,15 18,8 30,8 C42,8 45,15 45,25 M65,85 C80,60 90,40 90,25 C90,15 82,8 70,8 C58,8 55,15 55,25" fill="none" stroke="#f48fb1" stroke-width="3"/>
    <ellipse cx="35" cy="30" rx="8" ry="6" fill="#f48fb1"/>
    <ellipse cx="65" cy="30" rx="8" ry="6" fill="#f48fb1"/>
</svg>
